<svg width="57" height="49" viewBox="0 0 57 49" fill="none" xmlns="http://www.w3.org/2000/svg">
<g filter="url(#filter0_f_31:263)">
<ellipse cx="28.2674" cy="24.4159" rx="9.7691" ry="5.65579" transform="rotate(-11 28.2674 24.4159)" fill="#3FEB7E" fill-opacity="0.5"/>
</g>
<path d="M9.55008 31.4638C9.25391 31.7123 9.21526 32.1538 9.46374 32.45C9.71223 32.7461 10.1538 32.7848 10.4499 32.5363L9.55008 31.4638ZM17.9459 25.3334L18.4192 24.8176L17.9666 24.4023L17.496 24.7971L17.9459 25.3334ZM22.4865 29.5001L22.0132 30.0158L22.4769 30.4414L22.9492 30.0253L22.4865 29.5001ZM31.6986 22.0443C31.723 21.6584 31.43 21.3259 31.0442 21.3015L24.7568 20.9035C24.371 20.8791 24.0384 21.1721 24.014 21.5579C23.9896 21.9437 24.2825 22.2763 24.6684 22.3007L30.2572 22.6544L29.9035 28.2433C29.879 28.6291 30.172 28.9617 30.5578 28.9861C30.9437 29.0105 31.2762 28.7175 31.3007 28.3317L31.6986 22.0443ZM10.4499 32.5363L18.3959 25.8697L17.496 24.7971L9.55008 31.4638L10.4499 32.5363ZM17.4727 25.8491L22.0132 30.0158L22.9598 28.9843L18.4192 24.8176L17.4727 25.8491ZM22.9492 30.0253L31.4627 22.5253L30.5373 21.4748L22.0238 28.9748L22.9492 30.0253Z" fill="url(#paint0_linear_31:263)"/>
<defs>
<filter id="filter0_f_31:263" x="0.116369" y="0.0578365" width="56.3022" height="48.7162" filterUnits="userSpaceOnUse" color-interpolation-filters="sRGB">
<feFlood flood-opacity="0" result="BackgroundImageFix"/>
<feBlend mode="normal" in="SourceGraphic" in2="BackgroundImageFix" result="shape"/>
<feGaussianBlur stdDeviation="9.25004" result="effect1_foregroundBlur_31:263"/>
</filter>
<linearGradient id="paint0_linear_31:263" x1="35" y1="18.6667" x2="-4.11927" y2="33.4909" gradientUnits="userSpaceOnUse">
<stop stop-color="#28E872"/>
<stop offset="1" stop-color="white" stop-opacity="0"/>
</linearGradient>
</defs>
</svg>
