<svg width="57" height="49" viewBox="0 0 57 49" fill="none" xmlns="http://www.w3.org/2000/svg">
<g filter="url(#filter0_f_39:329)">
<ellipse cx="28.6688" cy="24.4159" rx="9.7691" ry="5.65579" transform="rotate(-11 28.6688 24.4159)" fill="url(#paint0_linear_39:329)"/>
</g>
<path d="M47.4499 16.5363C47.7461 16.2878 47.7847 15.8462 47.5363 15.5501C47.2878 15.2539 46.8462 15.2153 46.5501 15.4637L47.4499 16.5363ZM41.3859 20.7102L41.8358 21.2465L41.8358 21.2465L41.3859 20.7102ZM32.1734 20.5616L31.7106 20.0363L31.7106 20.0363L32.1734 20.5616ZM25.3014 25.9558C25.277 26.3416 25.57 26.6742 25.9558 26.6986L32.2432 27.0965C32.629 27.121 32.9616 26.828 32.986 26.4422C33.0104 26.0563 32.7175 25.7238 32.3316 25.6993L26.7428 25.3456L27.0965 19.7568C27.121 19.371 26.828 19.0384 26.4422 19.014C26.0563 18.9896 25.7238 19.2825 25.6993 19.6684L25.3014 25.9558ZM36.8114 20.6086L37.2846 20.0929L36.8114 20.6086ZM46.5501 15.4637L40.936 20.174L41.8358 21.2465L47.4499 16.5363L46.5501 15.4637ZM31.7106 20.0363L25.5373 25.4747L26.4627 26.5253L32.6361 21.0868L31.7106 20.0363ZM37.2846 20.0929C35.7143 18.6518 33.3099 18.6274 31.7106 20.0363L32.6361 21.0868C33.6982 20.1511 35.2951 20.1673 36.3381 21.1244L37.2846 20.0929ZM40.936 20.174C39.8711 21.0674 38.3088 21.0327 37.2846 20.0929L36.3381 21.1244C37.8801 22.5395 40.2325 22.5917 41.8358 21.2465L40.936 20.174Z" fill="url(#paint1_linear_39:329)"/>
<defs>
<filter id="filter0_f_39:329" x="0.517492" y="0.0575314" width="56.3024" height="48.7165" filterUnits="userSpaceOnUse" color-interpolation-filters="sRGB">
<feFlood flood-opacity="0" result="BackgroundImageFix"/>
<feBlend mode="normal" in="SourceGraphic" in2="BackgroundImageFix" result="shape"/>
<feGaussianBlur stdDeviation="9.25004" result="effect1_foregroundBlur_39:329"/>
</filter>
<linearGradient id="paint0_linear_39:329" x1="29.7089" y1="33.3525" x2="35.8504" y2="24.2091" gradientUnits="userSpaceOnUse">
<stop stop-color="#FD8B8B"/>
<stop offset="1" stop-color="#FD8B8B"/>
</linearGradient>
<linearGradient id="paint1_linear_39:329" x1="22" y1="29.3333" x2="61.1193" y2="14.5092" gradientUnits="userSpaceOnUse">
<stop stop-color="#FD8B8B"/>
<stop offset="1" stop-color="#FD8B8B" stop-opacity="0"/>
</linearGradient>
</defs>
</svg>
