<svg width="14" height="14" viewBox="0 0 14 14" fill="none" xmlns="http://www.w3.org/2000/svg">
<path d="M0 1.75C0 1.28587 0.184375 0.840752 0.512563 0.512563C0.840752 0.184375 1.28587 0 1.75 0L12.25 0C12.7141 0 13.1592 0.184375 13.4874 0.512563C13.8156 0.840752 14 1.28587 14 1.75V12.25C14 12.7141 13.8156 13.1592 13.4874 13.4874C13.1592 13.8156 12.7141 14 12.25 14H1.75C1.28587 14 0.840752 13.8156 0.512563 13.4874C0.184375 13.1592 0 12.7141 0 12.25V1.75ZM13.125 3.5H9.625V6.125H13.125V3.5ZM13.125 7H9.625V9.625H13.125V7ZM13.125 10.5H9.625V13.125H12.25C12.4821 13.125 12.7046 13.0328 12.8687 12.8687C13.0328 12.7046 13.125 12.4821 13.125 12.25V10.5ZM8.75 13.125V10.5H5.25V13.125H8.75ZM4.375 13.125V10.5H0.875V12.25C0.875 12.4821 0.967187 12.7046 1.13128 12.8687C1.29538 13.0328 1.51794 13.125 1.75 13.125H4.375ZM0.875 9.625H4.375V7H0.875V9.625ZM0.875 6.125H4.375V3.5H0.875V6.125ZM5.25 3.5V6.125H8.75V3.5H5.25ZM8.75 7H5.25V9.625H8.75V7Z" fill="#707378"/>
</svg>
