<svg width="66" height="59" viewBox="0 0 66 59" fill="none" xmlns="http://www.w3.org/2000/svg">
<g filter="url(#filter0_biiii_91:392)">
<path d="M18.5712 46.3857C12.0231 45.3633 7.55364 39.2277 8.58835 32.6816L11.2291 15.9747C12.2638 9.42853 18.4109 4.95065 24.959 5.97307L50.0393 9.88911C56.5874 10.9115 61.0569 17.0471 60.0222 23.5932L57.3814 40.3001C56.3467 46.8463 50.1996 51.3241 43.6516 50.3017L18.5712 46.3857Z" fill="white" fill-opacity="0.2"/>
</g>
<g filter="url(#filter1_f_91:392)">
<path d="M41.2955 32.0351C41.4516 34.8166 43.4707 37.0718 46.1254 37.4358L57.9973 39.2895C59.0986 39.4615 60.1387 38.6728 60.32 37.5256L61.452 30.3641C61.6306 29.219 60.8867 28.1493 59.7858 27.9749L47.7012 26.088C44.6887 25.6278 41.8549 27.7911 41.3643 30.9258C41.3063 31.2926 41.2838 31.6649 41.2955 32.0351Z" fill="#A9CFFF"/>
</g>
<g filter="url(#filter2_biii_91:392)">
<path d="M41.5509 30.4186C41.7069 33.2001 43.7261 35.4553 46.3808 35.8193L58.2527 37.673C59.354 37.845 60.394 37.0563 60.5754 35.9091L61.7074 28.7476C61.8859 27.6025 61.1421 26.5328 60.0411 26.3584L47.9565 24.4715C44.9441 24.0113 42.1103 26.1746 41.6197 29.3093C41.5617 29.6761 41.5392 30.0484 41.5509 30.4186Z" fill="white" fill-opacity="0.2"/>
</g>
<g filter="url(#filter3_f_91:392)">
<ellipse rx="2.46921" ry="2.45486" transform="matrix(0.988029 0.154271 -0.156126 0.987737 46.3752 30.8503)" fill="#A9CFFF"/>
</g>
<g filter="url(#filter4_biii_91:392)">
<ellipse rx="2.46921" ry="2.45486" transform="matrix(0.988029 0.154271 -0.156126 0.987737 46.5032 30.042)" fill="white" fill-opacity="0.2"/>
</g>
<g filter="url(#filter5_f_91:392)">
<path d="M36.6461 24.3619L19.3847 21.6667C18.0934 21.4593 17.221 20.2063 17.4379 18.8695C17.6539 17.5383 18.8663 16.6224 20.1513 16.8172L37.4235 19.5141C38.7166 19.7102 39.6012 20.9565 39.3952 22.295C39.1887 23.6364 37.9718 24.5631 36.6787 24.367L36.6569 24.3636L36.6461 24.3619Z" fill="#A9CFFF"/>
</g>
<g filter="url(#filter6_biii_91:392)">
<path d="M36.9014 22.7454L19.6401 20.0502C18.3488 19.8428 17.4764 18.5898 17.6933 17.253C17.9093 15.9218 19.1217 15.0059 20.4066 15.2007L37.6788 17.8976C38.972 18.0937 39.8566 19.34 39.6506 20.6785C39.4441 22.0199 38.2272 22.9466 36.9341 22.7505L36.9123 22.7471L36.9014 22.7454Z" fill="white" fill-opacity="0.2"/>
</g>
<path d="M16.4552 32.3959L16.1095 31.9244C15.9751 31.741 15.9179 31.5117 15.9536 31.2859L16.0458 30.7025C16.1943 29.7631 15.546 28.8796 14.6005 28.732L14.0138 28.6404C13.786 28.6048 13.584 28.4799 13.4495 28.2965L13.0989 27.8191C12.5315 27.052 11.4436 26.8822 10.6717 27.4453L10.1972 27.7887C10.0126 27.9223 9.78179 27.9796 9.55396 27.944L8.96728 27.8524C8.02176 27.7048 7.13214 28.3481 6.98366 29.2875L6.89242 29.8648C6.85574 30.0968 6.73062 30.2976 6.54609 30.4311L6.0649 30.7799C5.29302 31.343 5.12777 32.4254 5.68963 33.191L6.03622 33.6568C6.16977 33.8458 6.22691 34.0751 6.19104 34.302L6.099 34.8844C5.95051 35.8238 6.59861 36.7084 7.54413 36.856L8.13081 36.9476C8.35865 36.9832 8.56087 37.1069 8.69531 37.2903L9.04572 37.7689C9.3299 38.1496 9.74263 38.3816 10.1812 38.4501C10.6198 38.5186 11.0842 38.4235 11.4732 38.1415L11.9477 37.7981C12.1322 37.6646 12.3629 37.6084 12.5907 37.644L13.1774 37.7356C14.1229 37.8832 15.0127 37.2387 15.1612 36.2993L15.2532 35.717C15.2891 35.4901 15.4142 35.2893 15.5988 35.1557L16.0667 34.8171C16.0733 34.8123 16.0798 34.8081 16.0864 34.8027C16.4563 34.5306 16.701 34.1275 16.7668 33.6738C16.8384 33.2211 16.7298 32.7635 16.4552 32.3959Z" fill="#FFC65F"/>
<g filter="url(#filter7_biii_91:392)">
<path d="M18.7592 32.2242L18.2655 31.5508C18.0735 31.2889 17.9919 30.9615 18.0428 30.639L18.1746 29.8057C18.3866 28.464 17.4607 27.2022 16.1103 26.9913L15.2724 26.8605C14.947 26.8097 14.6584 26.6313 14.4664 26.3694L13.9657 25.6875C13.1552 24.5919 11.6014 24.3493 10.499 25.1536L9.82125 25.6441C9.55769 25.8349 9.22799 25.9167 8.90259 25.8659L8.06467 25.7351C6.71424 25.5242 5.44365 26.4431 5.23158 27.7848L5.10127 28.6092C5.04889 28.9406 4.87018 29.2274 4.60662 29.4181L3.91937 29.9162C2.81694 30.7205 2.58093 32.2664 3.38339 33.3598L3.87842 34.0252C4.06915 34.2951 4.15077 34.6226 4.09954 34.9467L3.96807 35.7784C3.756 37.1201 4.68164 38.3835 6.03207 38.5944L6.86999 38.7252C7.1954 38.776 7.48422 38.9528 7.67623 39.2147L8.1767 39.8982C8.58258 40.4419 9.17206 40.7733 9.79847 40.8711C10.4249 40.969 11.0882 40.8332 11.6437 40.4304L12.3214 39.94C12.5849 39.7492 12.9144 39.669 13.2398 39.7198L14.0777 39.8506C15.4281 40.0615 16.699 39.141 16.9111 37.7993L17.0425 36.9676C17.0937 36.6435 17.2725 36.3567 17.536 36.1659L18.2043 35.6823C18.2137 35.6755 18.223 35.6694 18.2326 35.6618C18.7608 35.2731 19.1102 34.6974 19.2043 34.0495C19.3065 33.4029 19.1514 32.7492 18.7592 32.2242Z" fill="white" fill-opacity="0.2"/>
</g>
<rect x="1.55982" y="2.14126" width="4.48071" height="4.43287" transform="matrix(0.988029 0.154271 -0.156126 0.987737 53.8144 6.89628)" stroke="#95DB3C" stroke-width="3.75" stroke-dasharray="3.75 3.75"/>
<mask id="mask0_91:392" style="mask-type:alpha" maskUnits="userSpaceOnUse" x="26" y="32" width="33" height="18">
<path d="M54.1135 47.7943C57.6624 43.7933 58.1501 38.072 58.1501 38.072L29.0659 32.2885L26.6386 47.6453C26.6386 47.6453 50.5646 51.7952 54.1135 47.7943Z" fill="#050121"/>
</mask>
<g mask="url(#mask0_91:392)">
<path d="M57.7387 59.1269C56.3276 68.0546 47.9018 74.155 38.9193 72.7525C29.9367 71.3499 23.7989 62.9756 25.21 54.0479C26.6212 45.1202 35.0469 39.0199 44.0295 40.4224C53.012 41.8249 59.1499 50.1992 57.7387 59.1269Z" stroke="white" stroke-width="1.75" stroke-linecap="round" stroke-linejoin="round" stroke-dasharray="3.5 3.5"/>
</g>
<path d="M22.4496 43.696C22.4401 43.6823 22.43 43.6688 22.4194 43.6558L16.72 36.6342C16.7153 36.6286 16.7105 36.6228 16.7056 36.6172C16.2087 36.0466 15.4463 35.8213 14.7163 36.0291C13.9863 36.2368 13.4596 36.8292 13.3417 37.5747L11.8648 46.9186C11.7819 47.4428 11.9083 47.968 12.2206 48.3975C12.5213 48.8111 12.972 49.0937 13.457 49.1727L13.4675 49.1743C13.9018 49.2421 14.5161 49.159 14.9505 48.7228C14.9623 48.711 14.9736 48.6986 14.9846 48.6858L15.6761 47.8726L16.7535 51.6129C16.7542 51.6156 16.7549 51.6182 16.7557 51.6207C16.9766 52.3522 17.6048 52.8605 18.3219 52.9724C18.5903 53.0143 18.8713 53.0007 19.1479 52.9225C19.6531 52.7794 20.0699 52.4481 20.3213 51.9894C20.5727 51.5308 20.6269 51.0031 20.4743 50.505L19.8762 48.5356C19.7736 48.1978 19.4148 48.0065 19.0748 48.1085C18.7348 48.2105 18.5424 48.567 18.645 48.905L19.2436 50.876C19.2953 51.0447 19.277 51.2229 19.192 51.378C19.1071 51.5328 18.9663 51.6448 18.7956 51.6931C18.4536 51.7899 18.0923 51.5942 17.9885 51.2565L16.6754 46.6976L17.1356 46.1565L20.6029 46.6979C20.6109 46.6992 20.6189 46.7003 20.6267 46.7012C21.3856 46.791 22.1048 46.4402 22.5036 45.7857C22.9048 45.1276 22.884 44.3268 22.4496 43.696ZM21.4036 45.1236C21.3531 45.2066 21.1604 45.4721 20.7889 45.4331L16.9778 44.8381C16.7559 44.8034 16.5319 44.8865 16.3869 45.0569L14.0245 47.8345C13.9483 47.899 13.7946 47.933 13.6649 47.9112C13.3628 47.862 13.0709 47.5237 13.1352 47.1169L14.6121 37.7731C14.6713 37.3991 14.9778 37.2842 15.0703 37.2579C15.1183 37.2442 15.2277 37.2205 15.3566 37.2406C15.4745 37.259 15.6086 37.3141 15.7272 37.4467L21.4002 44.4357C21.6019 44.7474 21.4544 45.0402 21.4036 45.1236Z" fill="#1C1C1C"/>
<defs>
<filter id="filter0_biiii_91:392" x="4.43945" y="1.82765" width="59.7314" height="52.6195" filterUnits="userSpaceOnUse" color-interpolation-filters="sRGB">
<feFlood flood-opacity="0" result="BackgroundImageFix"/>
<feGaussianBlur in="BackgroundImage" stdDeviation="2"/>
<feComposite in2="SourceAlpha" operator="in" result="effect1_backgroundBlur_91:392"/>
<feBlend mode="normal" in="SourceGraphic" in2="effect1_backgroundBlur_91:392" result="shape"/>
<feColorMatrix in="SourceAlpha" type="matrix" values="0 0 0 0 0 0 0 0 0 0 0 0 0 0 0 0 0 0 127 0" result="hardAlpha"/>
<feOffset dy="1"/>
<feGaussianBlur stdDeviation="2"/>
<feComposite in2="hardAlpha" operator="arithmetic" k2="-1" k3="1"/>
<feColorMatrix type="matrix" values="0 0 0 0 1 0 0 0 0 1 0 0 0 0 1 0 0 0 0.3 0"/>
<feBlend mode="normal" in2="shape" result="effect2_innerShadow_91:392"/>
<feColorMatrix in="SourceAlpha" type="matrix" values="0 0 0 0 0 0 0 0 0 0 0 0 0 0 0 0 0 0 127 0" result="hardAlpha"/>
<feOffset dy="-1"/>
<feGaussianBlur stdDeviation="2"/>
<feComposite in2="hardAlpha" operator="arithmetic" k2="-1" k3="1"/>
<feColorMatrix type="matrix" values="0 0 0 0 1 0 0 0 0 1 0 0 0 0 1 0 0 0 0.5 0"/>
<feBlend mode="normal" in2="effect2_innerShadow_91:392" result="effect3_innerShadow_91:392"/>
<feColorMatrix in="SourceAlpha" type="matrix" values="0 0 0 0 0 0 0 0 0 0 0 0 0 0 0 0 0 0 127 0" result="hardAlpha"/>
<feOffset dy="1"/>
<feGaussianBlur stdDeviation="22"/>
<feComposite in2="hardAlpha" operator="arithmetic" k2="-1" k3="1"/>
<feColorMatrix type="matrix" values="0 0 0 0 1 0 0 0 0 1 0 0 0 0 1 0 0 0 0.45 0"/>
<feBlend mode="normal" in2="effect3_innerShadow_91:392" result="effect4_innerShadow_91:392"/>
<feColorMatrix in="SourceAlpha" type="matrix" values="0 0 0 0 0 0 0 0 0 0 0 0 0 0 0 0 0 0 127 0" result="hardAlpha"/>
<feOffset dx="1" dy="1"/>
<feGaussianBlur stdDeviation="1"/>
<feComposite in2="hardAlpha" operator="arithmetic" k2="-1" k3="1"/>
<feColorMatrix type="matrix" values="0 0 0 0 1 0 0 0 0 1 0 0 0 0 1 0 0 0 1 0"/>
<feBlend mode="normal" in2="effect4_innerShadow_91:392" result="effect5_innerShadow_91:392"/>
</filter>
<filter id="filter1_f_91:392" x="37.2925" y="22.0263" width="28.186" height="21.2867" filterUnits="userSpaceOnUse" color-interpolation-filters="sRGB">
<feFlood flood-opacity="0" result="BackgroundImageFix"/>
<feBlend mode="normal" in="SourceGraphic" in2="BackgroundImageFix" result="shape"/>
<feGaussianBlur stdDeviation="2" result="effect1_foregroundBlur_91:392"/>
</filter>
<filter id="filter2_biii_91:392" x="36.5317" y="19.3937" width="30.2183" height="23.319" filterUnits="userSpaceOnUse" color-interpolation-filters="sRGB">
<feFlood flood-opacity="0" result="BackgroundImageFix"/>
<feGaussianBlur in="BackgroundImage" stdDeviation="2.50808"/>
<feComposite in2="SourceAlpha" operator="in" result="effect1_backgroundBlur_91:392"/>
<feBlend mode="normal" in="SourceGraphic" in2="effect1_backgroundBlur_91:392" result="shape"/>
<feColorMatrix in="SourceAlpha" type="matrix" values="0 0 0 0 0 0 0 0 0 0 0 0 0 0 0 0 0 0 127 0" result="hardAlpha"/>
<feOffset dy="1.25404"/>
<feGaussianBlur stdDeviation="2.50808"/>
<feComposite in2="hardAlpha" operator="arithmetic" k2="-1" k3="1"/>
<feColorMatrix type="matrix" values="0 0 0 0 1 0 0 0 0 1 0 0 0 0 1 0 0 0 0.3 0"/>
<feBlend mode="normal" in2="shape" result="effect2_innerShadow_91:392"/>
<feColorMatrix in="SourceAlpha" type="matrix" values="0 0 0 0 0 0 0 0 0 0 0 0 0 0 0 0 0 0 127 0" result="hardAlpha"/>
<feOffset dy="-1.25404"/>
<feGaussianBlur stdDeviation="2.50808"/>
<feComposite in2="hardAlpha" operator="arithmetic" k2="-1" k3="1"/>
<feColorMatrix type="matrix" values="0 0 0 0 1 0 0 0 0 1 0 0 0 0 1 0 0 0 0.5 0"/>
<feBlend mode="normal" in2="effect2_innerShadow_91:392" result="effect3_innerShadow_91:392"/>
<feColorMatrix in="SourceAlpha" type="matrix" values="0 0 0 0 0 0 0 0 0 0 0 0 0 0 0 0 0 0 127 0" result="hardAlpha"/>
<feOffset dy="1.25404"/>
<feGaussianBlur stdDeviation="0.627019"/>
<feComposite in2="hardAlpha" operator="arithmetic" k2="-1" k3="1"/>
<feColorMatrix type="matrix" values="0 0 0 0 1 0 0 0 0 1 0 0 0 0 1 0 0 0 0.95 0"/>
<feBlend mode="normal" in2="effect3_innerShadow_91:392" result="effect4_innerShadow_91:392"/>
</filter>
<filter id="filter3_f_91:392" x="39.9053" y="24.3954" width="12.9399" height="12.9097" filterUnits="userSpaceOnUse" color-interpolation-filters="sRGB">
<feFlood flood-opacity="0" result="BackgroundImageFix"/>
<feBlend mode="normal" in="SourceGraphic" in2="BackgroundImageFix" result="shape"/>
<feGaussianBlur stdDeviation="2" result="effect1_foregroundBlur_91:392"/>
</filter>
<filter id="filter4_biii_91:392" x="39.0171" y="22.571" width="14.9722" height="14.942" filterUnits="userSpaceOnUse" color-interpolation-filters="sRGB">
<feFlood flood-opacity="0" result="BackgroundImageFix"/>
<feGaussianBlur in="BackgroundImage" stdDeviation="2.50808"/>
<feComposite in2="SourceAlpha" operator="in" result="effect1_backgroundBlur_91:392"/>
<feBlend mode="normal" in="SourceGraphic" in2="effect1_backgroundBlur_91:392" result="shape"/>
<feColorMatrix in="SourceAlpha" type="matrix" values="0 0 0 0 0 0 0 0 0 0 0 0 0 0 0 0 0 0 127 0" result="hardAlpha"/>
<feOffset dy="1.25404"/>
<feGaussianBlur stdDeviation="2.50808"/>
<feComposite in2="hardAlpha" operator="arithmetic" k2="-1" k3="1"/>
<feColorMatrix type="matrix" values="0 0 0 0 1 0 0 0 0 1 0 0 0 0 1 0 0 0 0.3 0"/>
<feBlend mode="normal" in2="shape" result="effect2_innerShadow_91:392"/>
<feColorMatrix in="SourceAlpha" type="matrix" values="0 0 0 0 0 0 0 0 0 0 0 0 0 0 0 0 0 0 127 0" result="hardAlpha"/>
<feOffset dy="-1.25404"/>
<feGaussianBlur stdDeviation="2.50808"/>
<feComposite in2="hardAlpha" operator="arithmetic" k2="-1" k3="1"/>
<feColorMatrix type="matrix" values="0 0 0 0 1 0 0 0 0 1 0 0 0 0 1 0 0 0 0.5 0"/>
<feBlend mode="normal" in2="effect2_innerShadow_91:392" result="effect3_innerShadow_91:392"/>
<feColorMatrix in="SourceAlpha" type="matrix" values="0 0 0 0 0 0 0 0 0 0 0 0 0 0 0 0 0 0 127 0" result="hardAlpha"/>
<feOffset dy="1.25404"/>
<feGaussianBlur stdDeviation="0.627019"/>
<feComposite in2="hardAlpha" operator="arithmetic" k2="-1" k3="1"/>
<feColorMatrix type="matrix" values="0 0 0 0 1 0 0 0 0 1 0 0 0 0 1 0 0 0 0.95 0"/>
<feBlend mode="normal" in2="effect3_innerShadow_91:392" result="effect4_innerShadow_91:392"/>
</filter>
<filter id="filter5_f_91:392" x="13.4048" y="12.7911" width="30.02" height="15.6021" filterUnits="userSpaceOnUse" color-interpolation-filters="sRGB">
<feFlood flood-opacity="0" result="BackgroundImageFix"/>
<feBlend mode="normal" in="SourceGraphic" in2="BackgroundImageFix" result="shape"/>
<feGaussianBlur stdDeviation="2" result="effect1_foregroundBlur_91:392"/>
</filter>
<filter id="filter6_biii_91:392" x="12.644" y="10.1584" width="32.0523" height="17.6344" filterUnits="userSpaceOnUse" color-interpolation-filters="sRGB">
<feFlood flood-opacity="0" result="BackgroundImageFix"/>
<feGaussianBlur in="BackgroundImage" stdDeviation="2.50808"/>
<feComposite in2="SourceAlpha" operator="in" result="effect1_backgroundBlur_91:392"/>
<feBlend mode="normal" in="SourceGraphic" in2="effect1_backgroundBlur_91:392" result="shape"/>
<feColorMatrix in="SourceAlpha" type="matrix" values="0 0 0 0 0 0 0 0 0 0 0 0 0 0 0 0 0 0 127 0" result="hardAlpha"/>
<feOffset dy="1.25404"/>
<feGaussianBlur stdDeviation="2.50808"/>
<feComposite in2="hardAlpha" operator="arithmetic" k2="-1" k3="1"/>
<feColorMatrix type="matrix" values="0 0 0 0 1 0 0 0 0 1 0 0 0 0 1 0 0 0 0.3 0"/>
<feBlend mode="normal" in2="shape" result="effect2_innerShadow_91:392"/>
<feColorMatrix in="SourceAlpha" type="matrix" values="0 0 0 0 0 0 0 0 0 0 0 0 0 0 0 0 0 0 127 0" result="hardAlpha"/>
<feOffset dy="-1.25404"/>
<feGaussianBlur stdDeviation="2.50808"/>
<feComposite in2="hardAlpha" operator="arithmetic" k2="-1" k3="1"/>
<feColorMatrix type="matrix" values="0 0 0 0 1 0 0 0 0 1 0 0 0 0 1 0 0 0 0.5 0"/>
<feBlend mode="normal" in2="effect2_innerShadow_91:392" result="effect3_innerShadow_91:392"/>
<feColorMatrix in="SourceAlpha" type="matrix" values="0 0 0 0 0 0 0 0 0 0 0 0 0 0 0 0 0 0 127 0" result="hardAlpha"/>
<feOffset dy="1.25404"/>
<feGaussianBlur stdDeviation="0.627019"/>
<feComposite in2="hardAlpha" operator="arithmetic" k2="-1" k3="1"/>
<feColorMatrix type="matrix" values="0 0 0 0 1 0 0 0 0 1 0 0 0 0 1 0 0 0 0.95 0"/>
<feBlend mode="normal" in2="effect3_innerShadow_91:392" result="effect4_innerShadow_91:392"/>
</filter>
<filter id="filter7_biii_91:392" x="1.66961" y="23.4404" width="18.8034" height="18.6992" filterUnits="userSpaceOnUse" color-interpolation-filters="sRGB">
<feFlood flood-opacity="0" result="BackgroundImageFix"/>
<feGaussianBlur in="BackgroundImage" stdDeviation="0.619053"/>
<feComposite in2="SourceAlpha" operator="in" result="effect1_backgroundBlur_91:392"/>
<feBlend mode="normal" in="SourceGraphic" in2="effect1_backgroundBlur_91:392" result="shape"/>
<feColorMatrix in="SourceAlpha" type="matrix" values="0 0 0 0 0 0 0 0 0 0 0 0 0 0 0 0 0 0 127 0" result="hardAlpha"/>
<feOffset dy="0.309527"/>
<feGaussianBlur stdDeviation="0.619053"/>
<feComposite in2="hardAlpha" operator="arithmetic" k2="-1" k3="1"/>
<feColorMatrix type="matrix" values="0 0 0 0 1 0 0 0 0 1 0 0 0 0 1 0 0 0 0.3 0"/>
<feBlend mode="normal" in2="shape" result="effect2_innerShadow_91:392"/>
<feColorMatrix in="SourceAlpha" type="matrix" values="0 0 0 0 0 0 0 0 0 0 0 0 0 0 0 0 0 0 127 0" result="hardAlpha"/>
<feOffset dy="-0.309527"/>
<feGaussianBlur stdDeviation="0.619053"/>
<feComposite in2="hardAlpha" operator="arithmetic" k2="-1" k3="1"/>
<feColorMatrix type="matrix" values="0 0 0 0 1 0 0 0 0 1 0 0 0 0 1 0 0 0 0.5 0"/>
<feBlend mode="normal" in2="effect2_innerShadow_91:392" result="effect3_innerShadow_91:392"/>
<feColorMatrix in="SourceAlpha" type="matrix" values="0 0 0 0 0 0 0 0 0 0 0 0 0 0 0 0 0 0 127 0" result="hardAlpha"/>
<feOffset dy="0.309527"/>
<feGaussianBlur stdDeviation="0.154763"/>
<feComposite in2="hardAlpha" operator="arithmetic" k2="-1" k3="1"/>
<feColorMatrix type="matrix" values="0 0 0 0 1 0 0 0 0 1 0 0 0 0 1 0 0 0 0.95 0"/>
<feBlend mode="normal" in2="effect3_innerShadow_91:392" result="effect4_innerShadow_91:392"/>
</filter>
</defs>
</svg>
