<svg width="56" height="56" viewBox="0 0 56 56" fill="none" xmlns="http://www.w3.org/2000/svg">
<g filter="url(#filter0_d_44:49)">
<g filter="url(#filter1_i_44:49)">
<path d="M43.75 21.875C43.75 30.5044 36.7544 37.5 28.125 37.5C19.4956 37.5 12.5 30.5044 12.5 21.875C12.5 13.2456 19.4956 6.25 28.125 6.25C36.7544 6.25 43.75 13.2456 43.75 21.875Z" fill="url(#paint0_linear_44:49)"/>
</g>
<g filter="url(#filter2_bii_44:49)">
<path fill-rule="evenodd" clip-rule="evenodd" d="M21.875 43.75C30.5044 43.75 37.5 36.7544 37.5 28.125C37.5 19.4956 30.5044 12.5 21.875 12.5C13.2456 12.5 6.25 19.4956 6.25 28.125C6.25 36.7544 13.2456 43.75 21.875 43.75ZM23.2422 17.9688C23.2422 17.1058 22.5426 16.4062 21.6797 16.4062C20.8167 16.4062 20.1172 17.1058 20.1172 17.9688V19.9004C19.3002 20.0375 18.4827 20.3002 17.7632 20.7499C16.4817 21.5508 15.625 22.8843 15.625 24.707C15.625 26.5297 16.4817 27.8633 17.7632 28.6642C18.9495 29.4056 20.4021 29.6387 21.6797 29.6387C22.6482 29.6387 23.4417 29.8268 23.9399 30.1382C24.3431 30.3901 24.6094 30.7411 24.6094 31.4453C24.6094 32.1495 24.3431 32.5005 23.9399 32.7525C23.4417 33.0638 22.6482 33.252 21.6797 33.252C19.8264 33.252 18.7737 32.5625 18.3553 32.0918C17.782 31.4468 16.7944 31.3887 16.1494 31.9621C15.5045 32.5354 15.4464 33.523 16.0197 34.168C16.8731 35.128 18.2663 35.9512 20.1172 36.2535V38.1836C20.1172 39.0465 20.8167 39.7461 21.6797 39.7461C22.5426 39.7461 23.2422 39.0465 23.2422 38.1836V36.2519C24.0592 36.1148 24.8766 35.8522 25.5962 35.4025C26.8776 34.6015 27.7344 33.268 27.7344 31.4453C27.7344 29.6226 26.8776 28.2891 25.5962 27.4882C24.4098 26.7467 22.9573 26.5137 21.6797 26.5137C20.7112 26.5137 19.9177 26.3256 19.4194 26.0142C19.0163 25.7622 18.75 25.4112 18.75 24.707C18.75 24.0029 19.0163 23.6518 19.4194 23.3999C19.9177 23.0885 20.7112 22.9004 21.6797 22.9004C22.6765 22.9004 23.3064 23.0257 23.7666 23.2098C24.2143 23.3888 24.6038 23.6641 25.067 24.1273C25.6772 24.7375 26.6665 24.7375 27.2767 24.1273C27.8869 23.5171 27.8869 22.5278 27.2767 21.9176C26.6169 21.2578 25.8834 20.6907 24.9272 20.3083C24.4044 20.0992 23.8474 19.9582 23.2422 19.874V17.9688Z" fill="white" fill-opacity="0.4"/>
</g>
</g>
<defs>
<filter id="filter0_d_44:49" x="2.25" y="2.25" width="53.5" height="53.5" filterUnits="userSpaceOnUse" color-interpolation-filters="sRGB">
<feFlood flood-opacity="0" result="BackgroundImageFix"/>
<feColorMatrix in="SourceAlpha" type="matrix" values="0 0 0 0 0 0 0 0 0 0 0 0 0 0 0 0 0 0 127 0" result="hardAlpha"/>
<feOffset dx="4" dy="4"/>
<feGaussianBlur stdDeviation="4"/>
<feColorMatrix type="matrix" values="0 0 0 0 0.545098 0 0 0 0 0.823529 0 0 0 0 0.192157 0 0 0 0.4 0"/>
<feBlend mode="normal" in2="BackgroundImageFix" result="effect1_dropShadow_44:49"/>
<feBlend mode="normal" in="SourceGraphic" in2="effect1_dropShadow_44:49" result="shape"/>
</filter>
<filter id="filter1_i_44:49" x="12.5" y="6.25" width="31.25" height="31.25" filterUnits="userSpaceOnUse" color-interpolation-filters="sRGB">
<feFlood flood-opacity="0" result="BackgroundImageFix"/>
<feBlend mode="normal" in="SourceGraphic" in2="BackgroundImageFix" result="shape"/>
<feColorMatrix in="SourceAlpha" type="matrix" values="0 0 0 0 0 0 0 0 0 0 0 0 0 0 0 0 0 0 127 0" result="hardAlpha"/>
<feOffset/>
<feGaussianBlur stdDeviation="4"/>
<feComposite in2="hardAlpha" operator="arithmetic" k2="-1" k3="1"/>
<feColorMatrix type="matrix" values="0 0 0 0 1 0 0 0 0 1 0 0 0 0 1 0 0 0 0.8 0"/>
<feBlend mode="normal" in2="shape" result="effect1_innerShadow_44:49"/>
</filter>
<filter id="filter2_bii_44:49" x="2.25" y="8.5" width="39.25" height="39.25" filterUnits="userSpaceOnUse" color-interpolation-filters="sRGB">
<feFlood flood-opacity="0" result="BackgroundImageFix"/>
<feGaussianBlur in="BackgroundImage" stdDeviation="2"/>
<feComposite in2="SourceAlpha" operator="in" result="effect1_backgroundBlur_44:49"/>
<feBlend mode="normal" in="SourceGraphic" in2="effect1_backgroundBlur_44:49" result="shape"/>
<feColorMatrix in="SourceAlpha" type="matrix" values="0 0 0 0 0 0 0 0 0 0 0 0 0 0 0 0 0 0 127 0" result="hardAlpha"/>
<feOffset/>
<feGaussianBlur stdDeviation="2"/>
<feComposite in2="hardAlpha" operator="arithmetic" k2="-1" k3="1"/>
<feColorMatrix type="matrix" values="0 0 0 0 1 0 0 0 0 1 0 0 0 0 1 0 0 0 1 0"/>
<feBlend mode="normal" in2="shape" result="effect2_innerShadow_44:49"/>
<feColorMatrix in="SourceAlpha" type="matrix" values="0 0 0 0 0 0 0 0 0 0 0 0 0 0 0 0 0 0 127 0" result="hardAlpha"/>
<feOffset dy="4"/>
<feGaussianBlur stdDeviation="4"/>
<feComposite in2="hardAlpha" operator="arithmetic" k2="-1" k3="1"/>
<feColorMatrix type="matrix" values="0 0 0 0 1 0 0 0 0 1 0 0 0 0 1 0 0 0 1 0"/>
<feBlend mode="normal" in2="effect2_innerShadow_44:49" result="effect3_innerShadow_44:49"/>
</filter>
<linearGradient id="paint0_linear_44:49" x1="28.125" y1="6.25" x2="28.125" y2="37.5" gradientUnits="userSpaceOnUse">
<stop stop-color="#93DF32"/>
<stop offset="1" stop-color="#70BD0D"/>
</linearGradient>
</defs>
</svg>
