<svg width="17" height="17" viewBox="0 0 17 17" fill="none" xmlns="http://www.w3.org/2000/svg">
    <path d="M7.91699 8.51154H15.9999" stroke="#000" stroke-linecap="round" stroke-linejoin="round"/>
    <path d="M13.6904 6.20386L15.9998 8.51155L13.6904 10.8192" stroke="#000" stroke-linecap="round"
          stroke-linejoin="round"/>
    <path
            d="M13.9215 13.6923C12.8847 14.7723 11.5482 15.5175 10.084 15.8323C8.61978 16.147 7.09482 16.0168 5.70527 15.4585C4.31571 14.9001 3.1251 13.9391 2.28659 12.699C1.44807 11.459 1 9.99659 1 8.5C1 7.00341 1.44807 5.54103 2.28659 4.30098C3.1251 3.06093 4.31571 2.09992 5.70527 1.54155C7.09482 0.98318 8.61978 0.852993 10.084 1.16773C11.5482 1.48247 12.8847 2.22775 13.9215 3.30769"
            stroke="#000" stroke-linecap="round" stroke-linejoin="round"/>
</svg>
