<svg width="18" height="18" viewBox="0 0 18 18" fill="none" xmlns="http://www.w3.org/2000/svg">
<path d="M11.9987 3.49996C11.9987 2.91348 12.2048 2.34564 12.5811 1.8958C12.9574 1.44596 13.4799 1.14276 14.0572 1.03925C14.6345 0.935734 15.2298 1.0385 15.7389 1.32957C16.2481 1.62064 16.6387 2.08147 16.8424 2.63144C17.0461 3.18142 17.0499 3.7855 16.8532 4.33802C16.6565 4.89053 16.2718 5.35629 15.7664 5.6538C15.261 5.95132 14.667 6.06164 14.0885 5.96547C13.5099 5.8693 12.9836 5.57276 12.6016 5.12774L5.88458 8.2473C6.039 8.73667 6.039 9.26172 5.88458 9.75109L12.6016 12.8706C13.0054 12.401 13.5692 12.0981 14.1836 12.0204C14.7981 11.9428 15.4194 12.096 15.9274 12.4504C16.4353 12.8048 16.7935 13.3351 16.9327 13.9386C17.0719 14.5421 16.9821 15.1758 16.6807 15.7168C16.3793 16.2579 15.8877 16.6678 15.3013 16.867C14.715 17.0663 14.0755 17.0408 13.5068 16.7955C12.9381 16.5502 12.4808 16.1025 12.2234 15.5391C11.966 14.9758 11.9269 14.337 12.1137 13.7465L5.39665 10.627C5.06413 11.0145 4.62091 11.2909 4.12661 11.4189C3.6323 11.547 3.11063 11.5206 2.63177 11.3433C2.15291 11.1661 1.73984 10.8464 1.44811 10.4273C1.15638 10.0082 1 9.50982 1 8.99919C1 8.48857 1.15638 7.99019 1.44811 7.57111C1.73984 7.15202 2.15291 6.83233 2.63177 6.65504C3.11063 6.47775 3.6323 6.45137 4.12661 6.57945C4.62091 6.70752 5.06413 6.9839 5.39665 7.37142L12.1137 4.25186C12.0372 4.00856 11.9985 3.75499 11.9987 3.49996Z" fill="#999999"/>
</svg>
