<svg width="47" height="35" viewBox="0 0 47 35" fill="none" xmlns="http://www.w3.org/2000/svg">
<path d="M39.021 2.90292C44.2189 10.3934 46.7859 18.8424 45.8263 28.5692C45.8223 28.6103 45.8004 28.6481 45.7659 28.6729C41.8297 31.5058 38.016 33.225 34.2558 34.3652C34.2265 34.3739 34.1952 34.3734 34.1662 34.3638C34.1372 34.3542 34.112 34.336 34.0941 34.3116C33.2254 33.1269 32.4361 31.878 31.7446 30.5664C31.7049 30.4891 31.7411 30.3961 31.8228 30.3657C33.0764 29.9027 34.2684 29.3479 35.415 28.691C35.5053 28.6391 35.5111 28.5122 35.4277 28.4513C35.1843 28.2743 34.9433 28.0882 34.7126 27.9021C34.6694 27.8677 34.6113 27.8609 34.5624 27.8841C27.1186 31.2532 18.9642 31.2532 11.4323 27.8841C11.3834 27.8626 11.3253 27.87 11.2833 27.9038C11.0532 28.0899 10.8115 28.2743 10.5705 28.4513C10.4871 28.5122 10.494 28.6391 10.5849 28.691C11.7314 29.3355 12.9235 29.9027 14.1753 30.3679C14.2565 30.3984 14.295 30.4891 14.2547 30.5664C13.5782 31.8796 12.7889 33.1286 11.904 34.3133C11.8655 34.3612 11.8022 34.3832 11.7424 34.3652C8.00002 33.225 4.18632 31.5058 0.250087 28.6729C0.217294 28.6481 0.193707 28.6086 0.190255 28.5675C-0.61172 20.154 1.02272 11.635 6.98921 2.90123C7.00359 2.87811 7.02545 2.86007 7.05077 2.84936C9.98655 1.52877 13.1317 0.557225 16.419 0.00237701C16.4789 -0.00664492 16.5387 0.0204208 16.5698 0.0722969C16.9759 0.777135 17.4402 1.68102 17.7543 2.41969C21.2194 1.90093 24.7385 1.90093 28.2761 2.41969C28.5902 1.69681 29.0383 0.777135 29.4428 0.0722969C29.4572 0.0465618 29.4795 0.0259441 29.5066 0.0133876C29.5336 0.000830985 29.5641 -0.00302259 29.5935 0.00237701C32.8825 0.558917 36.0277 1.53047 38.9612 2.84936C38.9871 2.86007 39.0084 2.87811 39.021 2.90292ZM19.5159 18.8999C19.5521 16.4127 17.702 14.3546 15.3795 14.3546C13.0759 14.3546 11.2436 16.3946 11.2436 18.8999C11.2436 21.4046 13.1122 23.4447 15.3795 23.4447C17.6835 23.4447 19.5159 21.4046 19.5159 18.8999ZM34.8087 18.8999C34.8449 16.4127 32.9947 14.3546 30.6728 14.3546C28.3687 14.3546 26.5363 16.3946 26.5363 18.8999C26.5363 21.4046 28.4049 23.4447 30.6728 23.4447C32.9947 23.4447 34.8087 21.4046 34.8087 18.8999Z" fill="#45C98F"/>
</svg>
