<svg width="60" height="60" viewBox="0 0 60 60" fill="none" xmlns="http://www.w3.org/2000/svg">
<circle r="30" transform="matrix(-1 0 0 1 30 30)" fill="#050505"/>
<g filter="url(#filter0_i_91_8954)">
<path d="M30.6241 15.8249C39.6863 13.8833 53.2751 23.5914 49.3906 39.7716C51.4231 35.1077 51.5162 30.2924 50.0403 24.8858C48.5643 19.4792 45.5086 15.8249 41.6266 13.2361C37.7447 10.6472 35.1571 10 30.6241 10C26.0949 10.6472 26.7408 16.4721 30.6241 15.8249Z" fill="#F87656"/>
</g>
<g filter="url(#filter1_i_91_8954)">
<path d="M39.4383 27.4747C34.0767 27.4747 29.7302 31.8212 29.7302 37.1829C29.7302 42.5445 34.0767 46.891 39.4383 46.891C44.8 46.891 49.1465 42.5445 49.1465 37.1829C49.1465 31.8212 44.8 27.4747 39.4383 27.4747Z" fill="url(#paint0_linear_91_8954)"/>
<path d="M36.4488 10.6473C52.6256 14.5299 55.6171 33.9468 46.3241 44.0247L34.3139 28.9358C42.6729 23.5915 43.5649 15.1772 36.4488 10.6473Z" fill="url(#paint1_linear_91_8954)"/>
</g>
<g filter="url(#filter2_i_91_8954)">
<path d="M28.9248 45.1751C19.8625 47.1167 6.2737 37.4086 10.1583 21.2284C8.12576 25.8923 8.03259 30.7076 9.50855 36.1142C10.9845 41.5208 14.0403 45.1751 17.9222 47.7639C21.8042 50.3528 24.3917 51 28.9248 51C33.4539 50.3528 32.808 44.5279 28.9248 45.1751Z" fill="#23E070"/>
</g>
<g filter="url(#filter3_i_91_8954)">
<path d="M20.1105 33.5253C25.4721 33.5253 29.8186 29.1788 29.8186 23.8171C29.8186 18.4555 25.4721 14.109 20.1105 14.109C14.7488 14.109 10.4024 18.4555 10.4024 23.8171C10.4024 29.1788 14.7488 33.5253 20.1105 33.5253Z" fill="url(#paint2_linear_91_8954)"/>
<path d="M23.1001 50.3527C6.92326 46.4701 3.93177 27.0532 13.2248 16.9753L25.2349 32.0642C16.8759 37.4085 15.9839 45.8228 23.1001 50.3527Z" fill="url(#paint3_linear_91_8954)"/>
</g>
<g filter="url(#filter4_bii_91_8954)">
<path d="M20.5 32C25.1944 32 29 28.1944 29 23.5C29 18.8056 25.1944 15 20.5 15C15.8056 15 12 18.8056 12 23.5C12 28.1944 15.8056 32 20.5 32Z" fill="white" fill-opacity="0.4"/>
</g>
<g filter="url(#filter5_bii_91_8954)">
<path d="M39.5 46C44.1944 46 48 42.1944 48 37.5C48 32.8056 44.1944 29 39.5 29C34.8056 29 31 32.8056 31 37.5C31 42.1944 34.8056 46 39.5 46Z" fill="white" fill-opacity="0.4"/>
</g>
<defs>
<filter id="filter0_i_91_8954" x="27.4648" y="10" width="23.5811" height="29.7716" filterUnits="userSpaceOnUse" color-interpolation-filters="sRGB">
<feFlood flood-opacity="0" result="BackgroundImageFix"/>
<feBlend mode="normal" in="SourceGraphic" in2="BackgroundImageFix" result="shape"/>
<feColorMatrix in="SourceAlpha" type="matrix" values="0 0 0 0 0 0 0 0 0 0 0 0 0 0 0 0 0 0 127 0" result="hardAlpha"/>
<feOffset/>
<feGaussianBlur stdDeviation="1"/>
<feComposite in2="hardAlpha" operator="arithmetic" k2="-1" k3="1"/>
<feColorMatrix type="matrix" values="0 0 0 0 1 0 0 0 0 1 0 0 0 0 1 0 0 0 0.45 0"/>
<feBlend mode="normal" in2="shape" result="effect1_innerShadow_91_8954"/>
</filter>
<filter id="filter1_i_91_8954" x="29.7305" y="10.6473" width="21.8184" height="36.2437" filterUnits="userSpaceOnUse" color-interpolation-filters="sRGB">
<feFlood flood-opacity="0" result="BackgroundImageFix"/>
<feBlend mode="normal" in="SourceGraphic" in2="BackgroundImageFix" result="shape"/>
<feColorMatrix in="SourceAlpha" type="matrix" values="0 0 0 0 0 0 0 0 0 0 0 0 0 0 0 0 0 0 127 0" result="hardAlpha"/>
<feOffset/>
<feGaussianBlur stdDeviation="4"/>
<feComposite in2="hardAlpha" operator="arithmetic" k2="-1" k3="1"/>
<feColorMatrix type="matrix" values="0 0 0 0 1 0 0 0 0 1 0 0 0 0 1 0 0 0 0.8 0"/>
<feBlend mode="normal" in2="shape" result="effect1_innerShadow_91_8954"/>
</filter>
<filter id="filter2_i_91_8954" x="8.50293" y="21.2284" width="23.5811" height="29.7716" filterUnits="userSpaceOnUse" color-interpolation-filters="sRGB">
<feFlood flood-opacity="0" result="BackgroundImageFix"/>
<feBlend mode="normal" in="SourceGraphic" in2="BackgroundImageFix" result="shape"/>
<feColorMatrix in="SourceAlpha" type="matrix" values="0 0 0 0 0 0 0 0 0 0 0 0 0 0 0 0 0 0 127 0" result="hardAlpha"/>
<feOffset/>
<feGaussianBlur stdDeviation="1"/>
<feComposite in2="hardAlpha" operator="arithmetic" k2="-1" k3="1"/>
<feColorMatrix type="matrix" values="0 0 0 0 1 0 0 0 0 1 0 0 0 0 1 0 0 0 0.45 0"/>
<feBlend mode="normal" in2="shape" result="effect1_innerShadow_91_8954"/>
</filter>
<filter id="filter3_i_91_8954" x="8" y="14.109" width="21.8184" height="36.2437" filterUnits="userSpaceOnUse" color-interpolation-filters="sRGB">
<feFlood flood-opacity="0" result="BackgroundImageFix"/>
<feBlend mode="normal" in="SourceGraphic" in2="BackgroundImageFix" result="shape"/>
<feColorMatrix in="SourceAlpha" type="matrix" values="0 0 0 0 0 0 0 0 0 0 0 0 0 0 0 0 0 0 127 0" result="hardAlpha"/>
<feOffset/>
<feGaussianBlur stdDeviation="4"/>
<feComposite in2="hardAlpha" operator="arithmetic" k2="-1" k3="1"/>
<feColorMatrix type="matrix" values="0 0 0 0 1 0 0 0 0 1 0 0 0 0 1 0 0 0 0.8 0"/>
<feBlend mode="normal" in2="shape" result="effect1_innerShadow_91_8954"/>
</filter>
<filter id="filter4_bii_91_8954" x="8" y="11" width="25" height="25" filterUnits="userSpaceOnUse" color-interpolation-filters="sRGB">
<feFlood flood-opacity="0" result="BackgroundImageFix"/>
<feGaussianBlur in="BackgroundImage" stdDeviation="2"/>
<feComposite in2="SourceAlpha" operator="in" result="effect1_backgroundBlur_91_8954"/>
<feBlend mode="normal" in="SourceGraphic" in2="effect1_backgroundBlur_91_8954" result="shape"/>
<feColorMatrix in="SourceAlpha" type="matrix" values="0 0 0 0 0 0 0 0 0 0 0 0 0 0 0 0 0 0 127 0" result="hardAlpha"/>
<feOffset/>
<feGaussianBlur stdDeviation="2"/>
<feComposite in2="hardAlpha" operator="arithmetic" k2="-1" k3="1"/>
<feColorMatrix type="matrix" values="0 0 0 0 1 0 0 0 0 1 0 0 0 0 1 0 0 0 1 0"/>
<feBlend mode="normal" in2="shape" result="effect2_innerShadow_91_8954"/>
<feColorMatrix in="SourceAlpha" type="matrix" values="0 0 0 0 0 0 0 0 0 0 0 0 0 0 0 0 0 0 127 0" result="hardAlpha"/>
<feOffset dy="4"/>
<feGaussianBlur stdDeviation="4"/>
<feComposite in2="hardAlpha" operator="arithmetic" k2="-1" k3="1"/>
<feColorMatrix type="matrix" values="0 0 0 0 1 0 0 0 0 1 0 0 0 0 1 0 0 0 1 0"/>
<feBlend mode="normal" in2="effect2_innerShadow_91_8954" result="effect3_innerShadow_91_8954"/>
</filter>
<filter id="filter5_bii_91_8954" x="27" y="25" width="25" height="25" filterUnits="userSpaceOnUse" color-interpolation-filters="sRGB">
<feFlood flood-opacity="0" result="BackgroundImageFix"/>
<feGaussianBlur in="BackgroundImage" stdDeviation="2"/>
<feComposite in2="SourceAlpha" operator="in" result="effect1_backgroundBlur_91_8954"/>
<feBlend mode="normal" in="SourceGraphic" in2="effect1_backgroundBlur_91_8954" result="shape"/>
<feColorMatrix in="SourceAlpha" type="matrix" values="0 0 0 0 0 0 0 0 0 0 0 0 0 0 0 0 0 0 127 0" result="hardAlpha"/>
<feOffset/>
<feGaussianBlur stdDeviation="2"/>
<feComposite in2="hardAlpha" operator="arithmetic" k2="-1" k3="1"/>
<feColorMatrix type="matrix" values="0 0 0 0 1 0 0 0 0 1 0 0 0 0 1 0 0 0 1 0"/>
<feBlend mode="normal" in2="shape" result="effect2_innerShadow_91_8954"/>
<feColorMatrix in="SourceAlpha" type="matrix" values="0 0 0 0 0 0 0 0 0 0 0 0 0 0 0 0 0 0 127 0" result="hardAlpha"/>
<feOffset dy="4"/>
<feGaussianBlur stdDeviation="4"/>
<feComposite in2="hardAlpha" operator="arithmetic" k2="-1" k3="1"/>
<feColorMatrix type="matrix" values="0 0 0 0 1 0 0 0 0 1 0 0 0 0 1 0 0 0 1 0"/>
<feBlend mode="normal" in2="effect2_innerShadow_91_8954" result="effect3_innerShadow_91_8954"/>
</filter>
<linearGradient id="paint0_linear_91_8954" x1="51.5488" y1="28.7692" x2="29.7302" y2="28.7692" gradientUnits="userSpaceOnUse">
<stop stop-color="#FC954B"/>
<stop offset="1" stop-color="#F45DD3"/>
</linearGradient>
<linearGradient id="paint1_linear_91_8954" x1="51.5488" y1="28.7692" x2="29.7302" y2="28.7692" gradientUnits="userSpaceOnUse">
<stop stop-color="#FC954B"/>
<stop offset="1" stop-color="#F45DD3"/>
</linearGradient>
<linearGradient id="paint2_linear_91_8954" x1="8" y1="32.2308" x2="29.8186" y2="32.2308" gradientUnits="userSpaceOnUse">
<stop stop-color="#21EB66"/>
<stop offset="1" stop-color="#12D583"/>
</linearGradient>
<linearGradient id="paint3_linear_91_8954" x1="8" y1="32.2308" x2="29.8186" y2="32.2308" gradientUnits="userSpaceOnUse">
<stop stop-color="#21EB66"/>
<stop offset="1" stop-color="#12D583"/>
</linearGradient>
</defs>
</svg>
