<svg width="15" height="15" viewBox="0 0 15 15" fill="none" xmlns="http://www.w3.org/2000/svg">
<circle cx="7.5" cy="7.5" r="7" fill="white" stroke="#999999"/>
<g clip-path="url(#clip0_56:63)">
<path d="M7.63997 3.78003C8.3333 3.78003 8.88997 3.97003 9.30997 4.35003C9.73664 4.72336 9.94997 5.24003 9.94997 5.90003C9.94997 6.55336 9.73997 7.05336 9.31997 7.40003C8.89997 7.74003 8.3433 7.91003 7.64997 7.91003L7.60997 8.68003H6.37997L6.32997 6.98003H6.77997C7.35997 6.98003 7.80664 6.90336 8.11997 6.75003C8.4333 6.59669 8.58997 6.31669 8.58997 5.91003C8.58997 5.61669 8.5033 5.38336 8.32997 5.21003C8.1633 5.03669 7.9333 4.95003 7.63997 4.95003C7.3333 4.95003 7.0933 5.03336 6.91997 5.20003C6.7533 5.36669 6.66997 5.59669 6.66997 5.89003H5.34997C5.3433 5.48336 5.42997 5.12003 5.60997 4.80003C5.78997 4.48003 6.0533 4.23003 6.39997 4.05003C6.7533 3.87003 7.16664 3.78003 7.63997 3.78003ZM6.98997 11.07C6.73664 11.07 6.52664 10.9934 6.35997 10.84C6.19997 10.68 6.11997 10.4834 6.11997 10.25C6.11997 10.0167 6.19997 9.82336 6.35997 9.67003C6.52664 9.51003 6.73664 9.43003 6.98997 9.43003C7.23664 9.43003 7.43997 9.51003 7.59997 9.67003C7.75997 9.82336 7.83997 10.0167 7.83997 10.25C7.83997 10.4834 7.75997 10.68 7.59997 10.84C7.43997 10.9934 7.23664 11.07 6.98997 11.07Z" fill="#999999"/>
</g>
<defs>
<clipPath id="clip0_56:63">
<rect width="5" height="8" fill="white" transform="translate(5 3.28857)"/>
</clipPath>
</defs>
</svg>
