<svg width="48" height="39" viewBox="0 0 48 39" fill="none" xmlns="http://www.w3.org/2000/svg">
<path d="M14.8257 38.3194C32.6159 38.3194 42.3448 23.5783 42.3448 10.7953C42.3448 10.3767 42.3363 9.95997 42.3174 9.54498C44.2104 8.17498 45.8442 6.4787 47.142 4.53567C45.4089 5.30628 43.5441 5.82493 41.5877 6.05877C43.5846 4.8612 45.1176 2.96659 45.8409 0.708238C43.9422 1.83473 41.8652 2.62884 39.6992 3.05635C37.9343 1.17602 35.4215 0 32.6392 0C27.298 0 22.9667 4.3322 22.9667 9.67229C22.9667 10.4315 23.0517 11.1697 23.2176 11.878C15.179 11.4735 8.05103 7.62412 3.28058 1.77093C2.42138 3.24722 1.96946 4.92505 1.97096 6.63308C1.97096 9.98929 3.67842 12.952 6.27506 14.6854C4.73911 14.6385 3.23688 14.2236 1.89469 13.4755C1.89325 13.5161 1.89325 13.5557 1.89325 13.5991C1.89325 18.2839 5.22711 22.1954 9.6527 23.0818C8.82152 23.3082 7.96382 23.4226 7.10234 23.4221C6.4802 23.4221 5.87387 23.3609 5.2846 23.2478C6.51594 27.0914 10.0865 29.8884 14.3198 29.9666C11.0094 32.5617 6.83932 34.1074 2.30708 34.1074C1.53609 34.1081 0.765728 34.0633 0 33.9734C4.28053 36.7175 9.36324 38.3187 14.8262 38.3187" fill="#45C98F"/>
</svg>
