<svg width="100" height="99" viewBox="0 0 100 99" fill="none" xmlns="http://www.w3.org/2000/svg">
<g filter="url(#filter0_d_106_993)">
<path d="M70.7909 35.2258H27.276V33.4852L65.5691 30.4218V33.4852H70.7909V28.2634C70.7909 24.4341 67.6892 21.7466 63.9016 22.2862L28.947 27.2783C25.1559 27.8213 22.0542 31.3965 22.0542 35.2258V70.0378C22.0542 71.8843 22.7877 73.6552 24.0934 74.9609C25.3991 76.2666 27.17 77.0001 29.0166 77.0001H70.7909C72.6374 77.0001 74.4083 76.2666 75.714 74.9609C77.0197 73.6552 77.7533 71.8843 77.7533 70.0378V42.1882C77.7533 40.3417 77.0197 38.5708 75.714 37.2651C74.4083 35.9594 72.6374 35.2258 70.7909 35.2258ZM65.5691 59.6151C64.8831 59.6148 64.2039 59.4795 63.5703 59.2168C62.9366 58.9541 62.3609 58.5691 61.876 58.0839C61.3911 57.5987 61.0066 57.0227 60.7443 56.3889C60.482 55.755 60.3471 55.0757 60.3473 54.3898C60.3475 53.7038 60.4829 53.0246 60.7456 52.391C61.0083 51.7573 61.3933 51.1816 61.8785 50.6967C62.3637 50.2118 62.9397 49.8272 63.5735 49.5649C64.2073 49.3026 64.8866 49.1678 65.5726 49.168C66.958 49.1685 68.2864 49.7192 69.2657 50.6992C70.245 51.6791 70.7948 53.0079 70.7944 54.3933C70.7939 55.7786 70.2431 57.1071 69.2632 58.0863C68.2833 59.0656 66.9545 59.6155 65.5691 59.6151Z" fill="#45C98F"/>
</g>
<defs>
<filter id="filter0_d_106_993" x="0.0541992" y="0.217285" width="99.6992" height="98.7827" filterUnits="userSpaceOnUse" color-interpolation-filters="sRGB">
<feFlood flood-opacity="0" result="BackgroundImageFix"/>
<feColorMatrix in="SourceAlpha" type="matrix" values="0 0 0 0 0 0 0 0 0 0 0 0 0 0 0 0 0 0 127 0" result="hardAlpha"/>
<feOffset/>
<feGaussianBlur stdDeviation="11"/>
<feComposite in2="hardAlpha" operator="out"/>
<feColorMatrix type="matrix" values="0 0 0 0 0 0 0 0 0 0 0 0 0 0 0 0 0 0 0.25 0"/>
<feBlend mode="normal" in2="BackgroundImageFix" result="effect1_dropShadow_106_993"/>
<feBlend mode="normal" in="SourceGraphic" in2="effect1_dropShadow_106_993" result="shape"/>
</filter>
</defs>
</svg>
