<svg width="36" height="36" viewBox="0 0 36 36" fill="none" xmlns="http://www.w3.org/2000/svg">
<g filter="url(#filter0_bii_201_8956)">
<path d="M36 18C36 27.9411 27.9412 36 18 36C8.05888 36 0 27.9411 0 18C0 8.05887 8.05888 0 18 0C27.9412 0 36 8.05887 36 18Z" fill="white" fill-opacity="0.4"/>
</g>
<path d="M18.3107 8.92786C15.9405 8.92786 14.0191 10.862 14.0191 13.2479C14.0191 15.6337 15.9405 17.5679 18.3107 17.5679C20.6809 17.5679 22.6023 15.6337 22.6023 13.2479C22.6023 10.862 20.6809 8.92786 18.3107 8.92786Z" fill="#AC28F5"/>
<path d="M13.733 19.8719C11.3628 19.8719 9.44141 21.806 9.44141 24.1919V25.5608C9.44141 26.4285 10.0661 27.1683 10.9169 27.3082C15.8137 28.1129 20.8077 28.1129 25.7045 27.3082C26.5552 27.1683 27.18 26.4285 27.18 25.5608V24.1919C27.18 21.806 25.2586 19.8719 22.8884 19.8719H22.4983C22.2871 19.8719 22.0773 19.9055 21.8766 19.9714L20.8861 20.297C19.2126 20.8471 17.4087 20.8471 15.7353 20.297L14.7447 19.9714C14.544 19.9055 14.3342 19.8719 14.1231 19.8719H13.733Z" fill="#AC28F5"/>
<defs>
<filter id="filter0_bii_201_8956" x="-4" y="-4" width="44" height="44" filterUnits="userSpaceOnUse" color-interpolation-filters="sRGB">
<feFlood flood-opacity="0" result="BackgroundImageFix"/>
<feGaussianBlur in="BackgroundImage" stdDeviation="2"/>
<feComposite in2="SourceAlpha" operator="in" result="effect1_backgroundBlur_201_8956"/>
<feBlend mode="normal" in="SourceGraphic" in2="effect1_backgroundBlur_201_8956" result="shape"/>
<feColorMatrix in="SourceAlpha" type="matrix" values="0 0 0 0 0 0 0 0 0 0 0 0 0 0 0 0 0 0 127 0" result="hardAlpha"/>
<feOffset/>
<feGaussianBlur stdDeviation="2"/>
<feComposite in2="hardAlpha" operator="arithmetic" k2="-1" k3="1"/>
<feColorMatrix type="matrix" values="0 0 0 0 0.67451 0 0 0 0 0.156863 0 0 0 0 0.960784 0 0 0 0.1 0"/>
<feBlend mode="normal" in2="shape" result="effect2_innerShadow_201_8956"/>
<feColorMatrix in="SourceAlpha" type="matrix" values="0 0 0 0 0 0 0 0 0 0 0 0 0 0 0 0 0 0 127 0" result="hardAlpha"/>
<feOffset dy="4"/>
<feGaussianBlur stdDeviation="4"/>
<feComposite in2="hardAlpha" operator="arithmetic" k2="-1" k3="1"/>
<feColorMatrix type="matrix" values="0 0 0 0 0.67451 0 0 0 0 0.156863 0 0 0 0 0.960784 0 0 0 0.1 0"/>
<feBlend mode="normal" in2="effect2_innerShadow_201_8956" result="effect3_innerShadow_201_8956"/>
</filter>
</defs>
</svg>
