<svg width="60" height="60" viewBox="0 0 60 60" fill="none" xmlns="http://www.w3.org/2000/svg">
<circle r="29.5" transform="matrix(-1 0 0 1 30 30)" fill="white" stroke="url(#paint0_linear_3_5534)"/>
<g filter="url(#filter0_i_3_5534)">
<path d="M30.624 15.825C39.6862 13.8834 53.275 23.5915 49.3904 39.7717C51.4229 35.1079 51.5161 30.2925 50.0402 24.8859C48.5642 19.4794 45.5084 15.825 41.6265 13.2362C37.7446 10.6474 35.157 10.0001 30.624 10.0001C26.0948 10.6474 26.7407 16.4722 30.624 15.825Z" fill="#F87656"/>
</g>
<g filter="url(#filter1_i_3_5534)">
<path d="M39.4384 27.4749C34.0767 27.4749 29.7302 31.8213 29.7302 37.183C29.7302 42.5446 34.0767 46.8911 39.4384 46.8911C44.8 46.8911 49.1465 42.5446 49.1465 37.183C49.1465 31.8213 44.8 27.4749 39.4384 27.4749Z" fill="url(#paint1_linear_3_5534)"/>
<path d="M36.4488 10.6474C52.6256 14.5301 55.6171 33.9469 46.3241 44.0248L34.3139 28.936C42.6729 23.5916 43.5649 15.1773 36.4488 10.6474Z" fill="url(#paint2_linear_3_5534)"/>
</g>
<g filter="url(#filter2_i_3_5534)">
<path d="M28.9249 45.175C19.8626 47.1166 6.27383 37.4085 10.1584 21.2283C8.12588 25.8921 8.03271 30.7075 9.50868 36.1141C10.9846 41.5206 14.0404 45.175 17.9223 47.7638C21.8043 50.3526 24.3919 50.9999 28.9249 50.9999C33.454 50.3526 32.8081 44.5278 28.9249 45.175Z" fill="#23E070"/>
</g>
<g filter="url(#filter3_i_3_5534)">
<path d="M20.1105 33.5251C25.4721 33.5251 29.8186 29.1787 29.8186 23.817C29.8186 18.4554 25.4721 14.1089 20.1105 14.1089C14.7488 14.1089 10.4023 18.4554 10.4023 23.817C10.4023 29.1787 14.7488 33.5251 20.1105 33.5251Z" fill="url(#paint3_linear_3_5534)"/>
<path d="M23.1 50.3525C6.92322 46.4699 3.93174 27.0531 13.2247 16.9752L25.2349 32.064C16.8759 37.4084 15.9839 45.8227 23.1 50.3525Z" fill="url(#paint4_linear_3_5534)"/>
</g>
<g filter="url(#filter4_bii_3_5534)">
<path d="M20.5 32C25.1944 32 29 28.1944 29 23.5C29 18.8056 25.1944 15 20.5 15C15.8056 15 12 18.8056 12 23.5C12 28.1944 15.8056 32 20.5 32Z" fill="white" fill-opacity="0.4"/>
</g>
<g filter="url(#filter5_bii_3_5534)">
<path d="M39.5 46C44.1944 46 48 42.1944 48 37.5C48 32.8056 44.1944 29 39.5 29C34.8056 29 31 32.8056 31 37.5C31 42.1944 34.8056 46 39.5 46Z" fill="white" fill-opacity="0.4"/>
</g>
<defs>
<filter id="filter0_i_3_5534" x="27.4647" y="10.0002" width="23.5811" height="29.7715" filterUnits="userSpaceOnUse" color-interpolation-filters="sRGB">
<feFlood flood-opacity="0" result="BackgroundImageFix"/>
<feBlend mode="normal" in="SourceGraphic" in2="BackgroundImageFix" result="shape"/>
<feColorMatrix in="SourceAlpha" type="matrix" values="0 0 0 0 0 0 0 0 0 0 0 0 0 0 0 0 0 0 127 0" result="hardAlpha"/>
<feOffset/>
<feGaussianBlur stdDeviation="1"/>
<feComposite in2="hardAlpha" operator="arithmetic" k2="-1" k3="1"/>
<feColorMatrix type="matrix" values="0 0 0 0 1 0 0 0 0 1 0 0 0 0 1 0 0 0 0.45 0"/>
<feBlend mode="normal" in2="shape" result="effect1_innerShadow_3_5534"/>
</filter>
<filter id="filter1_i_3_5534" x="29.7302" y="10.6475" width="21.8186" height="36.2437" filterUnits="userSpaceOnUse" color-interpolation-filters="sRGB">
<feFlood flood-opacity="0" result="BackgroundImageFix"/>
<feBlend mode="normal" in="SourceGraphic" in2="BackgroundImageFix" result="shape"/>
<feColorMatrix in="SourceAlpha" type="matrix" values="0 0 0 0 0 0 0 0 0 0 0 0 0 0 0 0 0 0 127 0" result="hardAlpha"/>
<feOffset/>
<feGaussianBlur stdDeviation="4"/>
<feComposite in2="hardAlpha" operator="arithmetic" k2="-1" k3="1"/>
<feColorMatrix type="matrix" values="0 0 0 0 1 0 0 0 0 1 0 0 0 0 1 0 0 0 0.8 0"/>
<feBlend mode="normal" in2="shape" result="effect1_innerShadow_3_5534"/>
</filter>
<filter id="filter2_i_3_5534" x="8.50305" y="21.2283" width="23.5811" height="29.7715" filterUnits="userSpaceOnUse" color-interpolation-filters="sRGB">
<feFlood flood-opacity="0" result="BackgroundImageFix"/>
<feBlend mode="normal" in="SourceGraphic" in2="BackgroundImageFix" result="shape"/>
<feColorMatrix in="SourceAlpha" type="matrix" values="0 0 0 0 0 0 0 0 0 0 0 0 0 0 0 0 0 0 127 0" result="hardAlpha"/>
<feOffset/>
<feGaussianBlur stdDeviation="1"/>
<feComposite in2="hardAlpha" operator="arithmetic" k2="-1" k3="1"/>
<feColorMatrix type="matrix" values="0 0 0 0 1 0 0 0 0 1 0 0 0 0 1 0 0 0 0.45 0"/>
<feBlend mode="normal" in2="shape" result="effect1_innerShadow_3_5534"/>
</filter>
<filter id="filter3_i_3_5534" x="8" y="14.1089" width="21.8186" height="36.2437" filterUnits="userSpaceOnUse" color-interpolation-filters="sRGB">
<feFlood flood-opacity="0" result="BackgroundImageFix"/>
<feBlend mode="normal" in="SourceGraphic" in2="BackgroundImageFix" result="shape"/>
<feColorMatrix in="SourceAlpha" type="matrix" values="0 0 0 0 0 0 0 0 0 0 0 0 0 0 0 0 0 0 127 0" result="hardAlpha"/>
<feOffset/>
<feGaussianBlur stdDeviation="4"/>
<feComposite in2="hardAlpha" operator="arithmetic" k2="-1" k3="1"/>
<feColorMatrix type="matrix" values="0 0 0 0 1 0 0 0 0 1 0 0 0 0 1 0 0 0 0.8 0"/>
<feBlend mode="normal" in2="shape" result="effect1_innerShadow_3_5534"/>
</filter>
<filter id="filter4_bii_3_5534" x="8" y="11" width="25" height="25" filterUnits="userSpaceOnUse" color-interpolation-filters="sRGB">
<feFlood flood-opacity="0" result="BackgroundImageFix"/>
<feGaussianBlur in="BackgroundImage" stdDeviation="2"/>
<feComposite in2="SourceAlpha" operator="in" result="effect1_backgroundBlur_3_5534"/>
<feBlend mode="normal" in="SourceGraphic" in2="effect1_backgroundBlur_3_5534" result="shape"/>
<feColorMatrix in="SourceAlpha" type="matrix" values="0 0 0 0 0 0 0 0 0 0 0 0 0 0 0 0 0 0 127 0" result="hardAlpha"/>
<feOffset/>
<feGaussianBlur stdDeviation="2"/>
<feComposite in2="hardAlpha" operator="arithmetic" k2="-1" k3="1"/>
<feColorMatrix type="matrix" values="0 0 0 0 1 0 0 0 0 1 0 0 0 0 1 0 0 0 1 0"/>
<feBlend mode="normal" in2="shape" result="effect2_innerShadow_3_5534"/>
<feColorMatrix in="SourceAlpha" type="matrix" values="0 0 0 0 0 0 0 0 0 0 0 0 0 0 0 0 0 0 127 0" result="hardAlpha"/>
<feOffset dy="4"/>
<feGaussianBlur stdDeviation="4"/>
<feComposite in2="hardAlpha" operator="arithmetic" k2="-1" k3="1"/>
<feColorMatrix type="matrix" values="0 0 0 0 1 0 0 0 0 1 0 0 0 0 1 0 0 0 1 0"/>
<feBlend mode="normal" in2="effect2_innerShadow_3_5534" result="effect3_innerShadow_3_5534"/>
</filter>
<filter id="filter5_bii_3_5534" x="27" y="25" width="25" height="25" filterUnits="userSpaceOnUse" color-interpolation-filters="sRGB">
<feFlood flood-opacity="0" result="BackgroundImageFix"/>
<feGaussianBlur in="BackgroundImage" stdDeviation="2"/>
<feComposite in2="SourceAlpha" operator="in" result="effect1_backgroundBlur_3_5534"/>
<feBlend mode="normal" in="SourceGraphic" in2="effect1_backgroundBlur_3_5534" result="shape"/>
<feColorMatrix in="SourceAlpha" type="matrix" values="0 0 0 0 0 0 0 0 0 0 0 0 0 0 0 0 0 0 127 0" result="hardAlpha"/>
<feOffset/>
<feGaussianBlur stdDeviation="2"/>
<feComposite in2="hardAlpha" operator="arithmetic" k2="-1" k3="1"/>
<feColorMatrix type="matrix" values="0 0 0 0 1 0 0 0 0 1 0 0 0 0 1 0 0 0 1 0"/>
<feBlend mode="normal" in2="shape" result="effect2_innerShadow_3_5534"/>
<feColorMatrix in="SourceAlpha" type="matrix" values="0 0 0 0 0 0 0 0 0 0 0 0 0 0 0 0 0 0 127 0" result="hardAlpha"/>
<feOffset dy="4"/>
<feGaussianBlur stdDeviation="4"/>
<feComposite in2="hardAlpha" operator="arithmetic" k2="-1" k3="1"/>
<feColorMatrix type="matrix" values="0 0 0 0 1 0 0 0 0 1 0 0 0 0 1 0 0 0 1 0"/>
<feBlend mode="normal" in2="effect2_innerShadow_3_5534" result="effect3_innerShadow_3_5534"/>
</filter>
<linearGradient id="paint0_linear_3_5534" x1="60" y1="33.7255" x2="-2.18013" y2="27.9397" gradientUnits="userSpaceOnUse">
<stop stop-color="#E7E7E7"/>
<stop offset="1" stop-color="#E7E7E7" stop-opacity="0.3"/>
</linearGradient>
<linearGradient id="paint1_linear_3_5534" x1="51.5488" y1="28.7693" x2="29.7302" y2="28.7693" gradientUnits="userSpaceOnUse">
<stop stop-color="#FC954B"/>
<stop offset="1" stop-color="#F45DD3"/>
</linearGradient>
<linearGradient id="paint2_linear_3_5534" x1="51.5488" y1="28.7693" x2="29.7302" y2="28.7693" gradientUnits="userSpaceOnUse">
<stop stop-color="#FC954B"/>
<stop offset="1" stop-color="#F45DD3"/>
</linearGradient>
<linearGradient id="paint3_linear_3_5534" x1="8" y1="32.2307" x2="29.8186" y2="32.2307" gradientUnits="userSpaceOnUse">
<stop stop-color="#21EB66"/>
<stop offset="1" stop-color="#12D583"/>
</linearGradient>
<linearGradient id="paint4_linear_3_5534" x1="8" y1="32.2307" x2="29.8186" y2="32.2307" gradientUnits="userSpaceOnUse">
<stop stop-color="#21EB66"/>
<stop offset="1" stop-color="#12D583"/>
</linearGradient>
</defs>
</svg>
