<svg width="16" height="16" viewBox="0 0 16 16" fill="none" xmlns="http://www.w3.org/2000/svg">
<path d="M9.65267 8L15.2613 2.3911C15.4156 2.2367 15.5007 2.03071 15.501 1.81106C15.501 1.59129 15.4158 1.38506 15.2613 1.2309L14.7698 0.739528C14.6153 0.584762 14.4093 0.5 14.1894 0.5C13.9699 0.5 13.7639 0.584762 13.6094 0.739528L8.00073 6.34806L2.39183 0.739528C2.23755 0.584762 2.03144 0.5 1.81167 0.5C1.59214 0.5 1.38603 0.584762 1.23175 0.739528L0.740016 1.2309C0.419995 1.55092 0.419995 2.07144 0.740016 2.3911L6.3488 8L0.740016 13.6087C0.585615 13.7633 0.50061 13.9693 0.50061 14.1889C0.50061 14.4086 0.585615 14.6146 0.740016 14.7691L1.23163 15.2605C1.38591 15.4151 1.59214 15.5 1.81155 15.5C2.03132 15.5 2.23743 15.4151 2.39171 15.2605L8.00061 9.65182L13.6093 15.2605C13.7638 15.4151 13.9698 15.5 14.1893 15.5H14.1895C14.4092 15.5 14.6152 15.4151 14.7697 15.2605L15.2612 14.7691C15.4155 14.6147 15.5006 14.4086 15.5006 14.1889C15.5006 13.9693 15.4155 13.7633 15.2612 13.6088L9.65267 8Z" fill="#EFEFEF"/>
</svg>
