<svg width="25" height="24" viewBox="0 0 25 24" fill="none" xmlns="http://www.w3.org/2000/svg">
<path d="M11.9628 1.99902C6.47477 1.99902 2.00977 6.48502 2.00977 11.999C2.00977 17.513 6.49577 21.999 12.0098 21.999C17.5238 21.999 22.0098 17.513 22.0098 11.999C22.0098 6.48502 17.5028 1.99902 11.9628 1.99902ZM12.0098 19.999C7.59877 19.999 4.00977 16.41 4.00977 11.999C4.00977 7.58802 7.57677 3.99902 11.9628 3.99902C16.4008 3.99902 20.0098 7.58802 20.0098 11.999C20.0098 16.41 16.4208 19.999 12.0098 19.999Z" fill="#B3B3BA"/>
<path d="M11.0098 6.99902H13.0098V13.999H11.0098V6.99902ZM11.0098 14.999H13.0098V16.999H11.0098V14.999Z" fill="#B3B3BA"/>
</svg>
