<?xml version="1.0" encoding="utf-8"?>
<!-- Generator: Adobe Illustrator 24.0.1, SVG Export Plug-In . SVG Version: 6.00 Build 0)  -->
<svg version="1.1" id="Слой_1" xmlns="http://www.w3.org/2000/svg" xmlns:xlink="http://www.w3.org/1999/xlink" x="0px" y="0px"
	 viewBox="0 0 19.5 19.5" style="enable-background:new 0 0 19.5 19.5;" xml:space="preserve">
<style type="text/css">
	.st0{fill-rule:evenodd;clip-rule:evenodd;fill:#B7B6B6;}
</style>
<path class="st0" d="M19.3,18.2l-4.9-4.9c0.2-0.2,0.4-0.4,0.5-0.7c0.9-1.3,1.4-2.9,1.4-4.5c0-2.1-0.8-4.2-2.4-5.7
	c-0.8-0.8-1.7-1.3-2.6-1.8c-1-0.4-2-0.6-3.1-0.6C6.5,0,4.9,0.5,3.6,1.4C2.3,2.3,1.2,3.5,0.6,5C0,6.5-0.2,8.1,0.2,9.7
	c0.3,1.6,1.1,3,2.2,4.1C3.5,15,5,15.8,6.5,16.1c1.6,0.3,3.2,0.1,4.7-0.5c0.8-0.3,1.5-0.7,2.1-1.2l4.9,4.9c0.3,0.3,0.8,0.3,1.1,0
	C19.6,19,19.6,18.5,19.3,18.2z M10.6,14.2c-1.2,0.5-2.5,0.6-3.8,0.4c-1.3-0.3-2.5-0.9-3.4-1.8c-0.9-0.9-1.5-2.1-1.8-3.4
	C1.4,8.1,1.5,6.8,2,5.6c0.5-1.2,1.3-2.2,2.4-3c1.1-0.7,2.4-1.1,3.7-1.1c1.8,0,3.4,0.7,4.7,1.9s1.9,2.9,1.9,4.7
	c0,1.3-0.4,2.6-1.1,3.7C12.9,12.9,11.9,13.7,10.6,14.2z"/>
</svg>
