<svg width="150" height="180" viewBox="0 0 150 180" fill="none" xmlns="http://www.w3.org/2000/svg">
<path d="M117.656 175.565C116.446 175.565 115.236 174.355 115.236 173.145V130H99.9098V132.823H101.12C102.33 132.823 103.54 134.032 103.54 135.242V146.935C100.716 143.71 96.2798 141.29 91.8432 141.29C82.5666 141.29 75.3066 149.758 75.3066 160.645C75.3066 171.532 82.5666 180 91.8432 180C96.2798 180 100.313 177.984 103.54 174.355V178.79H118.463V175.968H117.656V175.565ZM94.2632 174.355C89.8265 174.355 86.1966 168.306 86.1966 161.048C86.1966 153.79 89.8265 147.742 94.2632 147.742C98.6998 147.742 102.33 153.79 102.33 161.048C102.33 168.306 98.6998 174.355 94.2632 174.355Z" fill="#616368" fill-opacity="0.15"/>
<path d="M41.0231 142.097C33.3598 142.097 29.3265 146.532 29.3265 146.532V142.097H14V145.322H14.8067C16.42 145.322 17.2266 146.532 17.2266 147.742V173.145C17.2266 174.355 16.0167 175.564 14.8067 175.564H14V178.387H32.5532V175.564H31.7465C30.5365 175.564 29.3265 174.355 29.3265 173.145V151.774C29.3265 148.548 35.7798 146.532 35.7798 146.935C35.7798 147.339 35.3765 148.145 35.7798 148.548C35.7798 152.177 38.6031 155 42.2331 155C45.8631 155 48.6864 152.581 48.6864 148.952C48.2831 145.322 45.4598 142.097 41.0231 142.097Z" fill="#616368" fill-opacity="0.15"/>
<path d="M73.6942 175.564C72.4842 175.564 71.2742 174.355 71.2742 173.145V151.371C71.2742 145.726 68.4509 142.097 63.2076 142.097H52.3177V144.113H54.7377C58.3677 144.113 59.5777 146.935 59.5777 151.371C58.3677 152.177 54.3344 153.79 45.0578 157.822C39.0078 160.645 38.6045 165.081 38.6045 169.113C38.6045 174.758 42.6378 179.193 47.8811 179.193C54.7377 179.193 59.5777 172.742 59.5777 172.742V178.387H75.3075V175.564H73.6942ZM58.771 168.71C58.771 168.71 56.351 171.532 53.1244 171.532C50.3011 171.532 48.6877 169.516 48.6877 167.097C48.6877 163.064 51.9144 161.855 58.771 157.016V168.71Z" fill="#616368" fill-opacity="0.15"/>
<path d="M128.144 167.5C130.564 167.5 132.177 167.903 133.791 169.516C134.597 170.726 135.001 171.935 135.001 173.145C135.001 175.565 133.387 177.177 131.371 177.984C129.757 178.387 128.144 178.387 126.531 177.984C125.321 177.581 124.111 176.774 123.304 175.565C122.497 174.355 122.497 172.742 122.901 171.532C123.304 169.516 124.917 168.306 126.934 167.5C127.337 167.903 127.741 167.903 128.144 167.5Z" fill="#616368" fill-opacity="0.15"/>
<g filter="url(#filter0_d_334_9215)">
<path fill-rule="evenodd" clip-rule="evenodd" d="M113.576 110.357C113.576 112.132 112.138 113.571 110.364 113.571H92.9782C91.5072 107.52 88.9392 101.826 85.4344 96.7589C90.3318 95.1123 95.4734 94.274 100.657 94.2853H100.666C105.036 94.2828 109.381 94.8916 113.576 96.0911V110.357ZM113.576 89.4379V39.6428C113.576 37.8676 112.138 36.4285 110.364 36.4285H39.701C37.9271 36.4285 36.489 37.8676 36.489 39.6428V75.3608C38.5881 75.1163 40.7009 74.9955 42.8165 74.9996C54.7703 74.7387 66.4292 78.7315 75.7173 86.2677C77.6849 87.8643 79.519 89.5978 81.209 91.4505C87.4121 89.0634 94.0087 87.8428 100.667 87.8567C105.023 87.8546 109.359 88.3869 113.576 89.4379ZM90.4388 119.999C90.4007 120 90.3628 120 90.3249 119.999H39.701C34.3792 119.999 30.0651 115.682 30.0651 110.357V79.7549L30.0577 79.7172C29.9763 79.2912 29.9831 78.8688 30.0651 78.4688V39.6428C30.0651 34.3172 34.3792 30 39.701 30H110.364C115.686 30 120 34.3172 120 39.6428V110.357C120 115.682 115.686 119.999 110.364 119.999H90.4388ZM39.701 113.571H86.3381C83.8797 104.827 78.7713 97.0219 71.6715 91.2611C63.5559 84.6762 53.3664 81.191 42.921 81.4274L42.8398 81.4292L42.8398 81.4282C40.7151 81.4225 38.5934 81.5598 36.489 81.8387V110.357C36.489 112.132 37.9271 113.571 39.701 113.571ZM81.3922 60.5355C81.3922 56.0976 84.9873 52.4999 89.4221 52.4999C93.8569 52.4999 97.452 56.0976 97.452 60.5355C97.452 64.9735 93.8569 68.5712 89.4221 68.5712C84.9873 68.5712 81.3922 64.9735 81.3922 60.5355ZM89.4221 46.0713C81.4394 46.0713 74.9682 52.5472 74.9682 60.5355C74.9682 68.5239 81.4394 74.9997 89.4221 74.9997C97.4047 74.9997 103.876 68.5239 103.876 60.5355C103.876 52.5472 97.4047 46.0713 89.4221 46.0713Z" fill="#AC28F5"/>
</g>
<defs>
<filter id="filter0_d_334_9215" x="0" y="0" width="150" height="150" filterUnits="userSpaceOnUse" color-interpolation-filters="sRGB">
<feFlood flood-opacity="0" result="BackgroundImageFix"/>
<feColorMatrix in="SourceAlpha" type="matrix" values="0 0 0 0 0 0 0 0 0 0 0 0 0 0 0 0 0 0 127 0" result="hardAlpha"/>
<feOffset/>
<feGaussianBlur stdDeviation="15"/>
<feComposite in2="hardAlpha" operator="out"/>
<feColorMatrix type="matrix" values="0 0 0 0 0.784858 0 0 0 0 0.395833 0 0 0 0 1 0 0 0 0.4 0"/>
<feBlend mode="normal" in2="BackgroundImageFix" result="effect1_dropShadow_334_9215"/>
<feBlend mode="normal" in="SourceGraphic" in2="effect1_dropShadow_334_9215" result="shape"/>
</filter>
</defs>
</svg>
